<mxfile host="65bd71144e">
    <diagram id="fVknIi9VD0GeLR7UAcn2" name="Страница 1">
        <mxGraphModel dx="3537" dy="3643" grid="0" gridSize="10" guides="1" tooltips="1" connect="1" arrows="1" fold="1" page="1" pageScale="1" pageWidth="1654" pageHeight="2336" math="0" shadow="0">
            <root>
                <mxCell id="0"/>
                <mxCell id="1" parent="0"/>
                <mxCell id="24" style="edgeStyle=none;html=1;exitX=0.25;exitY=0;exitDx=0;exitDy=0;entryX=0;entryY=0.25;entryDx=0;entryDy=0;fontFamily=Helvetica;fontSize=12;fontColor=#333333;" edge="1" parent="1" source="8" target="23">
                    <mxGeometry relative="1" as="geometry">
                        <Array as="points">
                            <mxPoint x="207" y="-2270"/>
                            <mxPoint x="198" y="-2076"/>
                        </Array>
                    </mxGeometry>
                </mxCell>
                <mxCell id="34" style="edgeStyle=none;html=1;exitX=0.25;exitY=1;exitDx=0;exitDy=0;entryX=1;entryY=0.5;entryDx=0;entryDy=0;fontFamily=Helvetica;fontSize=12;fontColor=#333333;" edge="1" parent="1" source="8" target="32">
                    <mxGeometry relative="1" as="geometry"/>
                </mxCell>
                <mxCell id="48" style="edgeStyle=none;html=1;exitX=0.25;exitY=1;exitDx=0;exitDy=0;entryX=1;entryY=0.5;entryDx=0;entryDy=0;fontFamily=Helvetica;fontSize=12;fontColor=#333333;" edge="1" parent="1" source="8" target="47">
                    <mxGeometry relative="1" as="geometry">
                        <Array as="points">
                            <mxPoint x="-14" y="-2229"/>
                            <mxPoint x="-17" y="-2022"/>
                        </Array>
                    </mxGeometry>
                </mxCell>
                <mxCell id="58" style="edgeStyle=none;html=1;exitX=1;exitY=0.5;exitDx=0;exitDy=0;fontFamily=Helvetica;fontSize=12;fontColor=#333333;" edge="1" parent="1" source="8" target="57">
                    <mxGeometry relative="1" as="geometry"/>
                </mxCell>
                <mxCell id="8" value="&lt;div style=&quot;box-sizing:border-box;width:100%;background:#e4e4e4;padding:2px;&quot;&gt;&quot;Artwork&quot; (Произведение искусства)&lt;/div&gt;&lt;div style=&quot;box-sizing:border-box;width:100%;background:#e4e4e4;padding:2px;&quot;&gt;&lt;table style=&quot;background-color: initial; font-size: 1em; width: 100%;&quot; cellpadding=&quot;2&quot; cellspacing=&quot;0&quot;&gt;&lt;tbody&gt;&lt;tr&gt;&lt;td&gt;ID&lt;/td&gt;&lt;td&gt;Уникальный &lt;br&gt;идентификатор произведения&lt;/td&gt;&lt;/tr&gt;&lt;tr&gt;&lt;td&gt;Title&lt;/td&gt;&lt;td&gt;Название произведения&lt;/td&gt;&lt;/tr&gt;&lt;tr&gt;&lt;td&gt;Artist&lt;/td&gt;&lt;td&gt;Имя художника&lt;br&gt;&lt;/td&gt;&lt;/tr&gt;&lt;tr&gt;&lt;td&gt;Year&lt;br&gt;&lt;/td&gt;&lt;td&gt;Год создания&lt;br&gt;&lt;/td&gt;&lt;/tr&gt;&lt;tr&gt;&lt;td&gt;Medium&lt;br&gt;&lt;/td&gt;&lt;td&gt;Техника исполнения&lt;br&gt;&lt;/td&gt;&lt;/tr&gt;&lt;tr&gt;&lt;td&gt;Description&lt;br&gt;&lt;/td&gt;&lt;td&gt;Описание произведения&lt;br&gt;&lt;/td&gt;&lt;/tr&gt;&lt;/tbody&gt;&lt;/table&gt;&lt;/div&gt;" style="verticalAlign=top;align=left;overflow=fill;html=1;fillColor=#f5f5f5;fontColor=#333333;strokeColor=default;noLabel=0;portConstraintRotation=0;resizeWidth=0;gradientColor=none;strokeWidth=1;labelBorderColor=none;whiteSpace=wrap;direction=south;movable=1;resizable=1;rotatable=1;deletable=1;editable=1;connectable=1;" vertex="1" parent="1">
                    <mxGeometry x="15" y="-2325" width="161" height="219" as="geometry"/>
                </mxCell>
                <mxCell id="18" style="edgeStyle=none;html=1;exitX=0.5;exitY=1;exitDx=0;exitDy=0;entryX=0.5;entryY=0;entryDx=0;entryDy=0;fontFamily=Helvetica;fontSize=12;fontColor=#333333;" edge="1" parent="1" source="10" target="8">
                    <mxGeometry relative="1" as="geometry"/>
                </mxCell>
                <mxCell id="10" value="&lt;div style=&quot;box-sizing:border-box;width:100%;background:#e4e4e4;padding:2px;&quot;&gt;&quot;Artist&quot; (Художник)&lt;table style=&quot;background-color: initial; font-size: 1em; width: 100%;&quot; cellpadding=&quot;2&quot; cellspacing=&quot;0&quot;&gt;&lt;tbody&gt;&lt;tr&gt;&lt;td&gt;ID&lt;/td&gt;&lt;td&gt;Уникальный &lt;br&gt;идентификатор &lt;br&gt;художника&lt;/td&gt;&lt;/tr&gt;&lt;tr&gt;&lt;td&gt;Name&lt;/td&gt;&lt;td&gt;Имя художника&lt;/td&gt;&lt;/tr&gt;&lt;tr&gt;&lt;td&gt;Birthdate&lt;/td&gt;&lt;td&gt;Дата рождения&lt;/td&gt;&lt;/tr&gt;&lt;tr&gt;&lt;td&gt;Nationality&lt;br&gt;&lt;/td&gt;&lt;td&gt;Национальность&lt;br&gt;&lt;/td&gt;&lt;/tr&gt;&lt;tr&gt;&lt;td&gt;Biography&lt;br&gt;&lt;/td&gt;&lt;td&gt;Биография художника&lt;br&gt;&lt;/td&gt;&lt;/tr&gt;&lt;/tbody&gt;&lt;/table&gt;&lt;/div&gt;" style="verticalAlign=top;align=left;overflow=fill;html=1;labelBorderColor=none;strokeColor=default;strokeWidth=1;fontFamily=Helvetica;fontSize=12;fontColor=#333333;fillColor=#f5f5f5;gradientColor=none;direction=south;whiteSpace=wrap;" vertex="1" parent="1">
                    <mxGeometry x="225" y="-2325" width="162" height="155" as="geometry"/>
                </mxCell>
                <mxCell id="19" style="edgeStyle=none;html=1;exitX=0.25;exitY=0;exitDx=0;exitDy=0;entryX=0.75;entryY=1;entryDx=0;entryDy=0;fontFamily=Helvetica;fontSize=12;fontColor=#333333;" edge="1" parent="1" source="12" target="16">
                    <mxGeometry relative="1" as="geometry"/>
                </mxCell>
                <mxCell id="61" style="edgeStyle=none;html=1;exitX=1;exitY=0.5;exitDx=0;exitDy=0;fontFamily=Helvetica;fontSize=12;fontColor=#333333;" edge="1" parent="1" source="12" target="60">
                    <mxGeometry relative="1" as="geometry"/>
                </mxCell>
                <mxCell id="12" value="&lt;div style=&quot;box-sizing:border-box;width:100%;background:#e4e4e4;padding:2px;&quot;&gt;&quot;Exhibition&quot; (Выставка)&lt;/div&gt;&lt;table style=&quot;width:100%;font-size:1em;&quot; cellpadding=&quot;2&quot; cellspacing=&quot;0&quot;&gt;&lt;tbody&gt;&lt;tr&gt;&lt;td&gt;ID&lt;/td&gt;&lt;td&gt;Уникальный идентификатор выставки&lt;/td&gt;&lt;/tr&gt;&lt;tr&gt;&lt;td&gt;Title&lt;/td&gt;&lt;td&gt;Название выставки&lt;/td&gt;&lt;/tr&gt;&lt;tr&gt;&lt;td&gt;StartDate&lt;/td&gt;&lt;td&gt;Дата начала&lt;/td&gt;&lt;/tr&gt;&lt;tr&gt;&lt;td&gt;EndDate&lt;br&gt;&lt;/td&gt;&lt;td&gt;Дата окончания&lt;br&gt;&lt;/td&gt;&lt;/tr&gt;&lt;tr&gt;&lt;td&gt;Description&lt;br&gt;&lt;/td&gt;&lt;td&gt;Описание выставки&lt;br&gt;&lt;/td&gt;&lt;/tr&gt;&lt;/tbody&gt;&lt;/table&gt;" style="verticalAlign=top;align=left;overflow=fill;html=1;labelBorderColor=none;strokeColor=default;strokeWidth=1;fontFamily=Helvetica;fontSize=12;fontColor=#333333;fillColor=#f5f5f5;gradientColor=none;whiteSpace=wrap;direction=south;" vertex="1" parent="1">
                    <mxGeometry x="446" y="-2325" width="158" height="172" as="geometry"/>
                </mxCell>
                <mxCell id="17" style="edgeStyle=none;html=1;exitX=0.25;exitY=1;exitDx=0;exitDy=0;entryX=0.5;entryY=0;entryDx=0;entryDy=0;fontFamily=Helvetica;fontSize=12;fontColor=#333333;" edge="1" parent="1" source="15" target="16">
                    <mxGeometry relative="1" as="geometry"/>
                </mxCell>
                <mxCell id="42" style="edgeStyle=none;html=1;exitX=0.25;exitY=0;exitDx=0;exitDy=0;entryX=0;entryY=0.5;entryDx=0;entryDy=0;fontFamily=Helvetica;fontSize=12;fontColor=#333333;" edge="1" parent="1" source="15" target="41">
                    <mxGeometry relative="1" as="geometry">
                        <Array as="points">
                            <mxPoint x="1075" y="-2291"/>
                            <mxPoint x="1075" y="-2078"/>
                            <mxPoint x="1234" y="-2081"/>
                            <mxPoint x="1234" y="-2031"/>
                        </Array>
                    </mxGeometry>
                </mxCell>
                <mxCell id="43" style="edgeStyle=none;html=1;exitX=0.25;exitY=0;exitDx=0;exitDy=0;entryX=0;entryY=0.75;entryDx=0;entryDy=0;fontFamily=Helvetica;fontSize=12;fontColor=#333333;" edge="1" parent="1" source="15" target="38">
                    <mxGeometry relative="1" as="geometry">
                        <Array as="points">
                            <mxPoint x="1075" y="-2291"/>
                            <mxPoint x="1075" y="-2159"/>
                        </Array>
                    </mxGeometry>
                </mxCell>
                <mxCell id="15" value="&lt;div style=&quot;box-sizing:border-box;width:100%;background:#e4e4e4;padding:2px;&quot;&gt;Таблица &quot;Visitor&quot; (Посетитель)&lt;table style=&quot;background-color: initial; font-size: 1em; width: 100%;&quot; cellpadding=&quot;2&quot; cellspacing=&quot;0&quot;&gt;&lt;tbody&gt;&lt;tr&gt;&lt;td&gt;ID&lt;/td&gt;&lt;td&gt;Уникальный идентификатор посетителя&lt;/td&gt;&lt;/tr&gt;&lt;tr&gt;&lt;td&gt;Name&lt;/td&gt;&lt;td&gt;Имя посетителя&lt;/td&gt;&lt;/tr&gt;&lt;tr&gt;&lt;td&gt;Email&lt;/td&gt;&lt;td&gt;Адрес электронной почты&lt;/td&gt;&lt;/tr&gt;&lt;tr&gt;&lt;td&gt;Phone&lt;br&gt;&lt;/td&gt;&lt;td&gt;Номер телефона&lt;br&gt;&lt;/td&gt;&lt;/tr&gt;&lt;/tbody&gt;&lt;/table&gt;&lt;/div&gt;" style="verticalAlign=top;align=left;overflow=fill;html=1;labelBorderColor=none;strokeColor=default;strokeWidth=1;fontFamily=Helvetica;fontSize=12;fontColor=#333333;fillColor=#f5f5f5;gradientColor=none;direction=south;whiteSpace=wrap;" vertex="1" parent="1">
                    <mxGeometry x="878" y="-2325" width="175" height="135" as="geometry"/>
                </mxCell>
                <mxCell id="16" value="&lt;div style=&quot;box-sizing:border-box;width:100%;background:#e4e4e4;padding:2px;&quot;&gt;&quot;Ticket&quot; (Билет)&lt;table style=&quot;background-color: initial; font-size: 1em; width: 100%;&quot; cellpadding=&quot;2&quot; cellspacing=&quot;0&quot;&gt;&lt;tbody&gt;&lt;tr&gt;&lt;td&gt;ID&lt;/td&gt;&lt;td&gt;Уникальный идентификатор билета&lt;/td&gt;&lt;/tr&gt;&lt;tr&gt;&lt;td&gt;VisitorID&lt;/td&gt;&lt;td&gt;Идентификатор посетителя&lt;/td&gt;&lt;/tr&gt;&lt;tr&gt;&lt;td&gt;ExhibitionID&lt;/td&gt;&lt;td&gt;Идентификатор выставки&lt;/td&gt;&lt;/tr&gt;&lt;tr&gt;&lt;td&gt;PurchaseDate&lt;br&gt;&lt;/td&gt;&lt;td&gt;Дата покупки&lt;br&gt;&lt;/td&gt;&lt;/tr&gt;&lt;tr&gt;&lt;td&gt;Price&lt;br&gt;&lt;/td&gt;&lt;td&gt;Цена билета&lt;br&gt;&lt;/td&gt;&lt;/tr&gt;&lt;/tbody&gt;&lt;/table&gt;&lt;/div&gt;" style="verticalAlign=top;align=left;overflow=fill;html=1;labelBorderColor=none;strokeColor=default;strokeWidth=1;fontFamily=Helvetica;fontSize=12;fontColor=#333333;fillColor=#f5f5f5;gradientColor=none;direction=south;whiteSpace=wrap;" vertex="1" parent="1">
                    <mxGeometry x="651" y="-2325" width="180" height="167" as="geometry"/>
                </mxCell>
                <mxCell id="22" style="edgeStyle=none;html=1;exitX=1;exitY=0.75;exitDx=0;exitDy=0;fontFamily=Helvetica;fontSize=12;fontColor=#333333;" edge="1" parent="1" source="20" target="21">
                    <mxGeometry relative="1" as="geometry"/>
                </mxCell>
                <mxCell id="45" value="" style="edgeStyle=none;html=1;fontFamily=Helvetica;fontSize=12;fontColor=#333333;exitX=1;exitY=0.5;exitDx=0;exitDy=0;entryX=0.25;entryY=1;entryDx=0;entryDy=0;" edge="1" parent="1" source="20" target="44">
                    <mxGeometry relative="1" as="geometry"/>
                </mxCell>
                <mxCell id="20" value="&lt;div style=&quot;box-sizing:border-box;width:100%;background:#e4e4e4;padding:2px;&quot;&gt;&quot;Department&quot; (Отдел)&lt;table style=&quot;background-color: initial; font-size: 1em; width: 100%;&quot; cellpadding=&quot;2&quot; cellspacing=&quot;0&quot;&gt;&lt;tbody&gt;&lt;tr&gt;&lt;td&gt;ID&lt;/td&gt;&lt;td&gt;Уникальный идентификатор отдела&lt;/td&gt;&lt;/tr&gt;&lt;tr&gt;&lt;td&gt;Name&lt;/td&gt;&lt;td&gt;Название отдела&lt;/td&gt;&lt;/tr&gt;&lt;tr&gt;&lt;td&gt;Description&lt;/td&gt;&lt;td&gt;Описание отдела&lt;/td&gt;&lt;/tr&gt;&lt;/tbody&gt;&lt;/table&gt;&lt;/div&gt;" style="verticalAlign=top;align=left;overflow=fill;html=1;labelBorderColor=none;strokeColor=default;strokeWidth=1;fontFamily=Helvetica;fontSize=12;fontColor=#333333;fillColor=#f5f5f5;gradientColor=none;whiteSpace=wrap;direction=south;" vertex="1" parent="1">
                    <mxGeometry x="883" y="-2170" width="161" height="128" as="geometry"/>
                </mxCell>
                <mxCell id="21" value="&lt;div style=&quot;box-sizing:border-box;width:100%;background:#e4e4e4;padding:2px;&quot;&gt;&quot;Curator&quot; (Куратор)&lt;/div&gt;&lt;table style=&quot;width:100%;font-size:1em;&quot; cellpadding=&quot;2&quot; cellspacing=&quot;0&quot;&gt;&lt;tbody&gt;&lt;tr&gt;&lt;td&gt;ID&lt;/td&gt;&lt;td&gt;Уникальный идентификатор куратора&lt;/td&gt;&lt;/tr&gt;&lt;tr&gt;&lt;td&gt;Name&lt;/td&gt;&lt;td&gt;Имя куратора&lt;/td&gt;&lt;/tr&gt;&lt;tr&gt;&lt;td&gt;DepartmentID&lt;/td&gt;&lt;td&gt;Идентификатор отдела, в котором работает&lt;/td&gt;&lt;/tr&gt;&lt;/tbody&gt;&lt;/table&gt;" style="verticalAlign=top;align=left;overflow=fill;html=1;labelBorderColor=none;strokeColor=default;strokeWidth=1;fontFamily=Helvetica;fontSize=12;fontColor=#333333;fillColor=#f5f5f5;gradientColor=none;whiteSpace=wrap;direction=south;" vertex="1" parent="1">
                    <mxGeometry x="807" y="-1995" width="189" height="135" as="geometry"/>
                </mxCell>
                <mxCell id="23" value="&lt;div style=&quot;box-sizing:border-box;width:100%;background:#e4e4e4;padding:2px;&quot;&gt;&quot;Loan&quot; (Займ)&lt;table style=&quot;background-color: initial; font-size: 1em; width: 100%;&quot; cellpadding=&quot;2&quot; cellspacing=&quot;0&quot;&gt;&lt;tbody&gt;&lt;tr&gt;&lt;td&gt;ID&lt;/td&gt;&lt;td&gt;Уникальный идентификатор займа&lt;/td&gt;&lt;/tr&gt;&lt;tr&gt;&lt;td&gt;ArtworkID&lt;/td&gt;&lt;td&gt;Идентификатор произведения, предоставленного в займ&lt;/td&gt;&lt;/tr&gt;&lt;tr&gt;&lt;td&gt;Lender&lt;/td&gt;&lt;td&gt;Имя организации или частного лица, предоставившего произведение в займ&lt;/td&gt;&lt;/tr&gt;&lt;tr&gt;&lt;td&gt;StartDate&lt;br&gt;&lt;/td&gt;&lt;td&gt;Дата начала займа&lt;br&gt;&lt;/td&gt;&lt;/tr&gt;&lt;tr&gt;&lt;td&gt;EndDate&lt;br&gt;&lt;/td&gt;&lt;td&gt;Дата окончания займа&lt;br&gt;&lt;/td&gt;&lt;/tr&gt;&lt;/tbody&gt;&lt;/table&gt;&lt;/div&gt;" style="verticalAlign=top;align=left;overflow=fill;html=1;labelBorderColor=none;strokeColor=default;strokeWidth=1;fontFamily=Helvetica;fontSize=12;fontColor=#333333;fillColor=#f5f5f5;gradientColor=none;whiteSpace=wrap;" vertex="1" parent="1">
                    <mxGeometry x="225" y="-2125" width="217" height="197" as="geometry"/>
                </mxCell>
                <mxCell id="25" value="&lt;div style=&quot;box-sizing:border-box;width:100%;background:#e4e4e4;padding:2px;&quot;&gt;&quot;Collection&quot; (Коллекция)&lt;table style=&quot;background-color: initial; font-size: 1em; width: 100%;&quot; cellpadding=&quot;2&quot; cellspacing=&quot;0&quot;&gt;&lt;tbody&gt;&lt;tr&gt;&lt;td&gt;ID&lt;/td&gt;&lt;td&gt;Уникальный идентификатор коллекции&lt;/td&gt;&lt;/tr&gt;&lt;tr&gt;&lt;td&gt;Name&lt;/td&gt;&lt;td&gt;Название коллекции&lt;/td&gt;&lt;/tr&gt;&lt;tr&gt;&lt;td&gt;Description&lt;/td&gt;&lt;td&gt;Описание коллекции&lt;/td&gt;&lt;/tr&gt;&lt;/tbody&gt;&lt;/table&gt;&lt;/div&gt;" style="verticalAlign=top;align=left;overflow=fill;html=1;labelBorderColor=none;strokeColor=default;strokeWidth=1;fontFamily=Helvetica;fontSize=12;fontColor=#333333;fillColor=#f5f5f5;gradientColor=none;whiteSpace=wrap;" vertex="1" parent="1">
                    <mxGeometry x="1057" y="-1866" width="166" height="132" as="geometry"/>
                </mxCell>
                <mxCell id="52" style="edgeStyle=none;html=1;exitX=1;exitY=0.25;exitDx=0;exitDy=0;entryX=0;entryY=0.567;entryDx=0;entryDy=0;entryPerimeter=0;fontFamily=Helvetica;fontSize=12;fontColor=#333333;" edge="1" parent="1" source="26" target="51">
                    <mxGeometry relative="1" as="geometry"/>
                </mxCell>
                <mxCell id="26" value="&lt;div style=&quot;box-sizing:border-box;width:100%;background:#e4e4e4;padding:2px;&quot;&gt;&quot;Publication&quot; (Публикация)&lt;/div&gt;&lt;table style=&quot;width:100%;font-size:1em;&quot; cellpadding=&quot;2&quot; cellspacing=&quot;0&quot;&gt;&lt;tbody&gt;&lt;tr&gt;&lt;td&gt;ID&lt;/td&gt;&lt;td&gt;Уникальный идентификатор публикации&lt;/td&gt;&lt;/tr&gt;&lt;tr&gt;&lt;td&gt;Title&lt;/td&gt;&lt;td&gt;Заглавие публикации&lt;/td&gt;&lt;/tr&gt;&lt;tr&gt;&lt;td&gt;Author&lt;/td&gt;&lt;td&gt;Автор публикации&lt;/td&gt;&lt;/tr&gt;&lt;tr&gt;&lt;td&gt;PublicationDate&lt;br&gt;&lt;/td&gt;&lt;td&gt;Дата публикации&lt;br&gt;&lt;/td&gt;&lt;/tr&gt;&lt;tr&gt;&lt;td&gt;Description&lt;br&gt;&lt;/td&gt;&lt;td&gt;Описание публикации&lt;br&gt;&lt;/td&gt;&lt;/tr&gt;&lt;/tbody&gt;&lt;/table&gt;" style="verticalAlign=top;align=left;overflow=fill;html=1;labelBorderColor=none;strokeColor=default;strokeWidth=1;fontFamily=Helvetica;fontSize=12;fontColor=#333333;fillColor=#f5f5f5;gradientColor=none;whiteSpace=wrap;" vertex="1" parent="1">
                    <mxGeometry x="1010" y="-1674" width="180" height="196" as="geometry"/>
                </mxCell>
                <mxCell id="56" style="edgeStyle=none;html=1;exitX=0;exitY=0.25;exitDx=0;exitDy=0;entryX=0;entryY=0.5;entryDx=0;entryDy=0;fontFamily=Helvetica;fontSize=12;fontColor=#333333;" edge="1" parent="1" source="29" target="54">
                    <mxGeometry relative="1" as="geometry">
                        <Array as="points">
                            <mxPoint x="-17" y="-1858"/>
                            <mxPoint x="-19" y="-1636"/>
                        </Array>
                    </mxGeometry>
                </mxCell>
                <mxCell id="29" value="&lt;div style=&quot;box-sizing:border-box;width:100%;background:#e4e4e4;padding:2px;&quot;&gt;&quot;Event&quot; (Событие)&lt;/div&gt;&lt;table style=&quot;width:100%;font-size:1em;&quot; cellpadding=&quot;2&quot; cellspacing=&quot;0&quot;&gt;&lt;tbody&gt;&lt;tr&gt;&lt;td&gt;ID&lt;/td&gt;&lt;td&gt;Уникальный идентификатор события&lt;/td&gt;&lt;/tr&gt;&lt;tr&gt;&lt;td&gt;Title&lt;/td&gt;&lt;td&gt;Название события&lt;/td&gt;&lt;/tr&gt;&lt;tr&gt;&lt;td&gt;Date&lt;/td&gt;&lt;td&gt;Дата проведения&lt;/td&gt;&lt;/tr&gt;&lt;tr&gt;&lt;td&gt;Description&lt;br&gt;&lt;/td&gt;&lt;td&gt;Описание события&lt;br&gt;&lt;/td&gt;&lt;/tr&gt;&lt;/tbody&gt;&lt;/table&gt;" style="verticalAlign=top;align=left;overflow=fill;html=1;labelBorderColor=none;strokeColor=default;strokeWidth=1;fontFamily=Helvetica;fontSize=12;fontColor=#333333;fillColor=#f5f5f5;gradientColor=none;whiteSpace=wrap;" vertex="1" parent="1">
                    <mxGeometry x="15" y="-1889" width="180" height="122" as="geometry"/>
                </mxCell>
                <mxCell id="30" value="&lt;div style=&quot;box-sizing:border-box;width:100%;background:#e4e4e4;padding:2px;&quot;&gt;&quot;Gallery&quot; (Галерея)&lt;/div&gt;&lt;table style=&quot;width:100%;font-size:1em;&quot; cellpadding=&quot;2&quot; cellspacing=&quot;0&quot;&gt;&lt;tbody&gt;&lt;tr&gt;&lt;td&gt;ID&lt;/td&gt;&lt;td&gt;Уникальный идентификатор галереи&lt;/td&gt;&lt;/tr&gt;&lt;tr&gt;&lt;td&gt;Name&lt;/td&gt;&lt;td&gt;Название галереи&lt;/td&gt;&lt;/tr&gt;&lt;tr&gt;&lt;td&gt;Location&lt;/td&gt;&lt;td&gt;Местоположение галереи&lt;/td&gt;&lt;/tr&gt;&lt;tr&gt;&lt;td&gt;Capacity&lt;br&gt;&lt;/td&gt;&lt;td&gt;Вместимость галереи&lt;br&gt;&lt;/td&gt;&lt;/tr&gt;&lt;/tbody&gt;&lt;/table&gt;" style="verticalAlign=top;align=left;overflow=fill;html=1;labelBorderColor=none;strokeColor=default;strokeWidth=1;fontFamily=Helvetica;fontSize=12;fontColor=#333333;fillColor=#f5f5f5;gradientColor=none;whiteSpace=wrap;" vertex="1" parent="1">
                    <mxGeometry x="823" y="-1507" width="157" height="151" as="geometry"/>
                </mxCell>
                <mxCell id="32" value="&lt;div style=&quot;box-sizing:border-box;width:100%;background:#e4e4e4;padding:2px;&quot;&gt;&quot;Acquisition&quot; (Приобретение)&lt;table style=&quot;background-color: initial; font-size: 1em; width: 100%;&quot; cellpadding=&quot;2&quot; cellspacing=&quot;0&quot;&gt;&lt;tbody&gt;&lt;tr&gt;&lt;td&gt;ID&lt;/td&gt;&lt;td&gt;Уникальный идентификатор приобретения&lt;/td&gt;&lt;/tr&gt;&lt;tr&gt;&lt;td&gt;ArtworkID&lt;/td&gt;&lt;td&gt;Идентификатор произведения, приобретенного музеем&lt;/td&gt;&lt;/tr&gt;&lt;tr&gt;&lt;td&gt;AcquisitionDate&lt;/td&gt;&lt;td&gt;Дата приобретения&lt;/td&gt;&lt;/tr&gt;&lt;tr&gt;&lt;td&gt;PurchasePrice&lt;br&gt;&lt;/td&gt;&lt;td&gt;Стоимость приобретения&lt;br&gt;&lt;/td&gt;&lt;/tr&gt;&lt;tr&gt;&lt;td&gt;Source&lt;br&gt;&lt;/td&gt;&lt;td&gt;Источник приобретения (галерея, аукцион и т. д.)&lt;br&gt;&lt;/td&gt;&lt;/tr&gt;&lt;/tbody&gt;&lt;/table&gt;&lt;/div&gt;" style="verticalAlign=top;align=left;overflow=fill;html=1;labelBorderColor=none;strokeColor=default;strokeWidth=1;fontFamily=Helvetica;fontSize=12;fontColor=#333333;fillColor=#f5f5f5;gradientColor=none;whiteSpace=wrap;" vertex="1" parent="1">
                    <mxGeometry x="-285" y="-2325" width="243" height="181" as="geometry"/>
                </mxCell>
                <mxCell id="40" style="edgeStyle=none;html=1;exitX=0;exitY=0.25;exitDx=0;exitDy=0;entryX=1;entryY=0.5;entryDx=0;entryDy=0;fontFamily=Helvetica;fontSize=12;fontColor=#333333;" edge="1" parent="1" source="35" target="38">
                    <mxGeometry relative="1" as="geometry"/>
                </mxCell>
                <mxCell id="35" value="&lt;div style=&quot;box-sizing:border-box;width:100%;background:#e4e4e4;padding:2px;&quot;&gt;&quot;EducationProgram&quot; (Образовательная программа)&lt;table style=&quot;background-color: initial; font-size: 1em; width: 100%;&quot; cellpadding=&quot;2&quot; cellspacing=&quot;0&quot;&gt;&lt;tbody&gt;&lt;tr&gt;&lt;td&gt;ID&lt;/td&gt;&lt;td&gt;Уникальный идентификатор образовательной программы&lt;/td&gt;&lt;/tr&gt;&lt;tr&gt;&lt;td&gt;Title&lt;/td&gt;&lt;td&gt;Название программы&lt;/td&gt;&lt;/tr&gt;&lt;tr&gt;&lt;td&gt;Description&lt;/td&gt;&lt;td&gt;Описание программы&lt;/td&gt;&lt;/tr&gt;&lt;tr&gt;&lt;td&gt;StartDate&lt;br&gt;&lt;/td&gt;&lt;td&gt;Дата начала&lt;br&gt;&lt;/td&gt;&lt;/tr&gt;&lt;tr&gt;&lt;td&gt;EndDate&lt;br&gt;&lt;/td&gt;&lt;td&gt;Дата окончания&lt;br&gt;&lt;/td&gt;&lt;/tr&gt;&lt;/tbody&gt;&lt;/table&gt;&lt;/div&gt;" style="verticalAlign=top;align=left;overflow=fill;html=1;labelBorderColor=none;strokeColor=default;strokeWidth=1;fontFamily=Helvetica;fontSize=12;fontColor=#333333;fillColor=#f5f5f5;gradientColor=none;whiteSpace=wrap;" vertex="1" parent="1">
                    <mxGeometry x="1354" y="-2325" width="199" height="168" as="geometry"/>
                </mxCell>
                <mxCell id="36" value="&lt;div style=&quot;box-sizing:border-box;width:100%;background:#e4e4e4;padding:2px;&quot;&gt;&quot;Facility&quot; (Объекты инфраструктуры и сервиса)&lt;table style=&quot;background-color: initial; font-size: 1em; width: 100%;&quot; cellpadding=&quot;2&quot; cellspacing=&quot;0&quot;&gt;&lt;tbody&gt;&lt;tr&gt;&lt;td&gt;ID&lt;/td&gt;&lt;td&gt;Уникальный идентификатор объекта&lt;/td&gt;&lt;/tr&gt;&lt;tr&gt;&lt;td&gt;Name&lt;/td&gt;&lt;td&gt;Название объекта&lt;/td&gt;&lt;/tr&gt;&lt;tr&gt;&lt;td&gt;Type&lt;/td&gt;&lt;td&gt;Тип объекта (кафе, магазин, туалеты и т. д.)&lt;/td&gt;&lt;/tr&gt;&lt;tr&gt;&lt;td&gt;Description&lt;br&gt;&lt;/td&gt;&lt;td&gt;Описание объекта&lt;br&gt;&lt;/td&gt;&lt;/tr&gt;&lt;/tbody&gt;&lt;/table&gt;&lt;/div&gt;" style="verticalAlign=top;align=left;overflow=fill;html=1;labelBorderColor=none;strokeColor=default;strokeWidth=1;fontFamily=Helvetica;fontSize=12;fontColor=#333333;fillColor=#f5f5f5;gradientColor=none;whiteSpace=wrap;" vertex="1" parent="1">
                    <mxGeometry x="538" y="-1979" width="209" height="137" as="geometry"/>
                </mxCell>
                <mxCell id="37" value="&lt;div style=&quot;box-sizing:border-box;width:100%;background:#e4e4e4;padding:2px;&quot;&gt;&quot;Teacher&quot; (Преподаватель)&lt;table style=&quot;background-color: initial; font-size: 1em; width: 100%;&quot; cellpadding=&quot;2&quot; cellspacing=&quot;0&quot;&gt;&lt;tbody&gt;&lt;tr&gt;&lt;td&gt;ID&lt;/td&gt;&lt;td&gt;Уникальный идентификатор преподавателя&lt;/td&gt;&lt;/tr&gt;&lt;tr&gt;&lt;td&gt;Name&lt;/td&gt;&lt;td&gt;Имя преподавателя&lt;/td&gt;&lt;/tr&gt;&lt;tr&gt;&lt;td&gt;Email&lt;/td&gt;&lt;td&gt;Адрес электронной почты&lt;/td&gt;&lt;/tr&gt;&lt;tr&gt;&lt;td&gt;Phone&lt;br&gt;&lt;/td&gt;&lt;td&gt;Номер телефона&lt;br&gt;&lt;/td&gt;&lt;/tr&gt;&lt;/tbody&gt;&lt;/table&gt;&lt;/div&gt;" style="verticalAlign=top;align=left;overflow=fill;html=1;labelBorderColor=none;strokeColor=default;strokeWidth=1;fontFamily=Helvetica;fontSize=12;fontColor=#333333;fillColor=#f5f5f5;gradientColor=none;whiteSpace=wrap;" vertex="1" parent="1">
                    <mxGeometry x="1263" y="-1866" width="180" height="135" as="geometry"/>
                </mxCell>
                <mxCell id="38" value="&lt;div style=&quot;box-sizing:border-box;width:100%;background:#e4e4e4;padding:2px;&quot;&gt;&quot;EducationRegistration&quot; (Регистрация на образовательную программу)&lt;/div&gt;&lt;table style=&quot;width:100%;font-size:1em;&quot; cellpadding=&quot;2&quot; cellspacing=&quot;0&quot;&gt;&lt;tbody&gt;&lt;tr&gt;&lt;td&gt;ID&lt;/td&gt;&lt;td&gt;Уникальный идентификатор регистрации&lt;/td&gt;&lt;/tr&gt;&lt;tr&gt;&lt;td&gt;ProgramID&lt;/td&gt;&lt;td&gt;Идентификатор образовательной программы&lt;/td&gt;&lt;/tr&gt;&lt;tr&gt;&lt;td&gt;VisitorID&lt;/td&gt;&lt;td&gt;Идентификатор посетителя&lt;/td&gt;&lt;/tr&gt;&lt;tr&gt;&lt;td&gt;RegistrationDate&lt;br&gt;&lt;/td&gt;&lt;td&gt;Дата регистрации&lt;br&gt;&lt;/td&gt;&lt;/tr&gt;&lt;/tbody&gt;&lt;/table&gt;" style="verticalAlign=top;align=left;overflow=fill;html=1;labelBorderColor=none;strokeColor=default;strokeWidth=1;fontFamily=Helvetica;fontSize=12;fontColor=#333333;fillColor=#f5f5f5;gradientColor=none;whiteSpace=wrap;" vertex="1" parent="1">
                    <mxGeometry x="1095" y="-2325" width="207" height="228" as="geometry"/>
                </mxCell>
                <mxCell id="41" value="&lt;div style=&quot;box-sizing:border-box;width:100%;background:#e4e4e4;padding:2px;&quot;&gt;&quot;Membership&quot; (Членство)&lt;/div&gt;&lt;table style=&quot;width:100%;font-size:1em;&quot; cellpadding=&quot;2&quot; cellspacing=&quot;0&quot;&gt;&lt;tbody&gt;&lt;tr&gt;&lt;td&gt;ID&lt;/td&gt;&lt;td&gt;Уникальный идентификатор членства&lt;/td&gt;&lt;/tr&gt;&lt;tr&gt;&lt;td&gt;VisitorID&lt;/td&gt;&lt;td&gt;Идентификатор посетителя&lt;/td&gt;&lt;/tr&gt;&lt;tr&gt;&lt;td&gt;MembershipType&lt;/td&gt;&lt;td&gt;Тип членства (обычное, VIP и т. д.)&lt;/td&gt;&lt;/tr&gt;&lt;tr&gt;&lt;td&gt;StartDate&lt;br&gt;&lt;/td&gt;&lt;td&gt;Дата начала членства&lt;br&gt;&lt;/td&gt;&lt;/tr&gt;&lt;tr&gt;&lt;td&gt;EndDate&lt;br&gt;&lt;/td&gt;&lt;td&gt;Дата окончания членства&lt;br&gt;&lt;/td&gt;&lt;/tr&gt;&lt;/tbody&gt;&lt;/table&gt;" style="verticalAlign=top;align=left;overflow=fill;html=1;labelBorderColor=none;strokeColor=default;strokeWidth=1;fontFamily=Helvetica;fontSize=12;fontColor=#333333;fillColor=#f5f5f5;gradientColor=none;whiteSpace=wrap;" vertex="1" parent="1">
                    <mxGeometry x="1354" y="-2128" width="218" height="194" as="geometry"/>
                </mxCell>
                <mxCell id="44" value="&lt;div style=&quot;box-sizing:border-box;width:100%;background:#e4e4e4;padding:2px;&quot;&gt;&quot;Staff&quot; (Персонал)&lt;table style=&quot;background-color: initial; font-size: 1em; width: 100%;&quot; cellpadding=&quot;2&quot; cellspacing=&quot;0&quot;&gt;&lt;tbody&gt;&lt;tr&gt;&lt;td&gt;ID&lt;/td&gt;&lt;td&gt;Уникальный идентификатор сотрудника&lt;/td&gt;&lt;/tr&gt;&lt;tr&gt;&lt;td&gt;Name&lt;/td&gt;&lt;td&gt;Имя сотрудника&lt;/td&gt;&lt;/tr&gt;&lt;tr&gt;&lt;td&gt;Position&lt;/td&gt;&lt;td&gt;Должность&lt;/td&gt;&lt;/tr&gt;&lt;tr&gt;&lt;td&gt;DepartmentID&lt;br&gt;&lt;/td&gt;&lt;td&gt;Идентификатор отдела, в котором работает&lt;br&gt;&lt;/td&gt;&lt;/tr&gt;&lt;/tbody&gt;&lt;/table&gt;&lt;/div&gt;" style="verticalAlign=top;align=left;overflow=fill;html=1;labelBorderColor=none;strokeColor=default;strokeWidth=1;fontFamily=Helvetica;fontSize=12;fontColor=#333333;fillColor=#f5f5f5;gradientColor=none;whiteSpace=wrap;direction=south;" vertex="1" parent="1">
                    <mxGeometry x="1029" y="-2029" width="190" height="149.5" as="geometry"/>
                </mxCell>
                <mxCell id="63" style="edgeStyle=none;html=1;exitX=0.5;exitY=1;exitDx=0;exitDy=0;entryX=0.5;entryY=0;entryDx=0;entryDy=0;fontFamily=Helvetica;fontSize=12;fontColor=#333333;" edge="1" parent="1" source="46" target="62">
                    <mxGeometry relative="1" as="geometry"/>
                </mxCell>
                <mxCell id="46" value="&lt;div style=&quot;box-sizing:border-box;width:100%;background:#e4e4e4;padding:2px;&quot;&gt;&quot;LoanAgreement&quot; (Договор займа)&lt;/div&gt;&lt;table style=&quot;width:100%;font-size:1em;&quot; cellpadding=&quot;2&quot; cellspacing=&quot;0&quot;&gt;&lt;tbody&gt;&lt;tr&gt;&lt;td&gt;ID&lt;/td&gt;&lt;td&gt;Уникальный идентификатор договора&lt;/td&gt;&lt;/tr&gt;&lt;tr&gt;&lt;td&gt;LoanID&lt;/td&gt;&lt;td&gt;Идентификатор займа&lt;/td&gt;&lt;/tr&gt;&lt;tr&gt;&lt;td&gt;LenderContact&lt;/td&gt;&lt;td&gt;Контактная информация занимающей стороны&lt;/td&gt;&lt;/tr&gt;&lt;tr&gt;&lt;td&gt;BorrowerContact&lt;br&gt;&lt;/td&gt;&lt;td&gt;Контактная информация заемной стороны&lt;br&gt;&lt;/td&gt;&lt;/tr&gt;&lt;tr&gt;&lt;td&gt;AgreementDate&lt;br&gt;&lt;/td&gt;&lt;td&gt;Дата заключения договора&lt;br&gt;&lt;/td&gt;&lt;/tr&gt;&lt;/tbody&gt;&lt;/table&gt;" style="verticalAlign=top;align=left;overflow=fill;html=1;labelBorderColor=none;strokeColor=default;strokeWidth=1;fontFamily=Helvetica;fontSize=12;fontColor=#333333;fillColor=#f5f5f5;gradientColor=none;whiteSpace=wrap;" vertex="1" parent="1">
                    <mxGeometry x="259" y="-1889" width="233" height="210" as="geometry"/>
                </mxCell>
                <mxCell id="47" value="&lt;div style=&quot;box-sizing:border-box;width:100%;background:#e4e4e4;padding:2px;&quot;&gt;&quot;Conservation&quot; (Консервация)&lt;table style=&quot;background-color: initial; font-size: 1em; width: 100%;&quot; cellpadding=&quot;2&quot; cellspacing=&quot;0&quot;&gt;&lt;tbody&gt;&lt;tr&gt;&lt;td&gt;ID&lt;/td&gt;&lt;td&gt;Уникальный идентификатор консервации&lt;/td&gt;&lt;/tr&gt;&lt;tr&gt;&lt;td&gt;ArtworkID&lt;/td&gt;&lt;td&gt;Идентификатор произведения, подвергшегося консервации&lt;/td&gt;&lt;/tr&gt;&lt;tr&gt;&lt;td&gt;Conservator&lt;/td&gt;&lt;td&gt;Имя консерватора&lt;/td&gt;&lt;/tr&gt;&lt;tr&gt;&lt;td&gt;Date&lt;br&gt;&lt;/td&gt;&lt;td&gt;Дата консервации&lt;br&gt;&lt;/td&gt;&lt;/tr&gt;&lt;tr&gt;&lt;td&gt;Description&lt;br&gt;&lt;/td&gt;&lt;td&gt;Описание проведенных работ по консервации&lt;br&gt;&lt;/td&gt;&lt;/tr&gt;&lt;/tbody&gt;&lt;/table&gt;&lt;/div&gt;" style="verticalAlign=top;align=left;overflow=fill;html=1;labelBorderColor=none;strokeColor=default;strokeWidth=1;fontFamily=Helvetica;fontSize=12;fontColor=#333333;fillColor=#f5f5f5;gradientColor=none;whiteSpace=wrap;" vertex="1" parent="1">
                    <mxGeometry x="-254" y="-2120" width="212" height="195" as="geometry"/>
                </mxCell>
                <mxCell id="49" value="&lt;div style=&quot;box-sizing:border-box;width:100%;background:#e4e4e4;padding:2px;&quot;&gt;&quot;Research&quot; (Исследование)&lt;/div&gt;&lt;table style=&quot;width:100%;font-size:1em;&quot; cellpadding=&quot;2&quot; cellspacing=&quot;0&quot;&gt;&lt;tbody&gt;&lt;tr&gt;&lt;td&gt;ID&lt;/td&gt;&lt;td&gt;Уникальный идентификатор исследования&lt;/td&gt;&lt;/tr&gt;&lt;tr&gt;&lt;td&gt;Title&lt;/td&gt;&lt;td&gt;Название исследования&lt;/td&gt;&lt;/tr&gt;&lt;tr&gt;&lt;td&gt;Researcher&lt;/td&gt;&lt;td&gt;Имя исследователя&lt;/td&gt;&lt;/tr&gt;&lt;tr&gt;&lt;td&gt;Date&lt;br&gt;&lt;/td&gt;&lt;td&gt;Дата исследования&lt;br&gt;&lt;/td&gt;&lt;/tr&gt;&lt;tr&gt;&lt;td&gt;Description&lt;br&gt;&lt;/td&gt;&lt;td&gt;Описание исследования&lt;br&gt;&lt;/td&gt;&lt;/tr&gt;&lt;/tbody&gt;&lt;/table&gt;" style="verticalAlign=top;align=left;overflow=fill;html=1;labelBorderColor=none;strokeColor=default;strokeWidth=1;fontFamily=Helvetica;fontSize=12;fontColor=#333333;fillColor=#f5f5f5;gradientColor=none;whiteSpace=wrap;" vertex="1" parent="1">
                    <mxGeometry x="774" y="-1661" width="209" height="138" as="geometry"/>
                </mxCell>
                <mxCell id="50" value="&lt;div style=&quot;box-sizing:border-box;width:100%;background:#e4e4e4;padding:2px;&quot;&gt;&quot;Donor&quot; (Донор)&lt;/div&gt;&lt;table style=&quot;width:100%;font-size:1em;&quot; cellpadding=&quot;2&quot; cellspacing=&quot;0&quot;&gt;&lt;tbody&gt;&lt;tr&gt;&lt;td&gt;ID&lt;/td&gt;&lt;td&gt;Уникальный идентификатор донора&lt;/td&gt;&lt;/tr&gt;&lt;tr&gt;&lt;td&gt;Name&lt;/td&gt;&lt;td&gt;Имя донора&lt;/td&gt;&lt;/tr&gt;&lt;tr&gt;&lt;td&gt;DonationDate&lt;/td&gt;&lt;td&gt;Дата пожертвования&lt;/td&gt;&lt;/tr&gt;&lt;tr&gt;&lt;td&gt;Description&lt;br&gt;&lt;/td&gt;&lt;td&gt;Описание пожертвования&lt;br&gt;&lt;/td&gt;&lt;/tr&gt;&lt;/tbody&gt;&lt;/table&gt;" style="verticalAlign=top;align=left;overflow=fill;html=1;labelBorderColor=none;strokeColor=default;strokeWidth=1;fontFamily=Helvetica;fontSize=12;fontColor=#333333;fillColor=#f5f5f5;gradientColor=none;whiteSpace=wrap;" vertex="1" parent="1">
                    <mxGeometry x="574" y="-1804" width="180" height="152" as="geometry"/>
                </mxCell>
                <mxCell id="53" style="edgeStyle=none;html=1;exitX=0;exitY=0.75;exitDx=0;exitDy=0;fontFamily=Helvetica;fontSize=12;fontColor=#333333;" edge="1" parent="1" source="51" target="26">
                    <mxGeometry relative="1" as="geometry"/>
                </mxCell>
                <mxCell id="51" value="&lt;div style=&quot;box-sizing:border-box;width:100%;background:#e4e4e4;padding:2px;&quot;&gt;&quot;PublicationAuthor&quot; (Автор публикации)&lt;/div&gt;&lt;table style=&quot;width:100%;font-size:1em;&quot; cellpadding=&quot;2&quot; cellspacing=&quot;0&quot;&gt;&lt;tbody&gt;&lt;tr&gt;&lt;td&gt;ID&lt;/td&gt;&lt;td&gt;Уникальный идентификатор связи автора с публикацией&lt;/td&gt;&lt;/tr&gt;&lt;tr&gt;&lt;td&gt;PublicationID&lt;/td&gt;&lt;td&gt;Идентификатор публикации&lt;/td&gt;&lt;/tr&gt;&lt;tr&gt;&lt;td&gt;AuthorID&lt;/td&gt;&lt;td&gt;Идентификатор автора&lt;/td&gt;&lt;/tr&gt;&lt;/tbody&gt;&lt;/table&gt;" style="verticalAlign=top;align=left;overflow=fill;html=1;labelBorderColor=none;strokeColor=default;strokeWidth=1;fontFamily=Helvetica;fontSize=12;fontColor=#333333;fillColor=#f5f5f5;gradientColor=none;whiteSpace=wrap;" vertex="1" parent="1">
                    <mxGeometry x="1282" y="-1674" width="220.5" height="120" as="geometry"/>
                </mxCell>
                <mxCell id="54" value="&lt;div style=&quot;box-sizing:border-box;width:100%;background:#e4e4e4;padding:2px;&quot;&gt;&quot;EventParticipant&quot; (Участник события)&lt;/div&gt;&lt;table style=&quot;width:100%;font-size:1em;&quot; cellpadding=&quot;2&quot; cellspacing=&quot;0&quot;&gt;&lt;tbody&gt;&lt;tr&gt;&lt;td&gt;ID&lt;/td&gt;&lt;td&gt;Уникальный идентификатор участника&lt;/td&gt;&lt;/tr&gt;&lt;tr&gt;&lt;td&gt;EventID&lt;/td&gt;&lt;td&gt;Идентификатор события&lt;/td&gt;&lt;/tr&gt;&lt;tr&gt;&lt;td&gt;ParticipantName&lt;/td&gt;&lt;td&gt;Имя участника&lt;/td&gt;&lt;/tr&gt;&lt;tr&gt;&lt;td&gt;Role&lt;br&gt;&lt;/td&gt;&lt;td&gt;Роль участника (гость, спикер и т. д.)&lt;br&gt;&lt;/td&gt;&lt;/tr&gt;&lt;/tbody&gt;&lt;/table&gt;" style="verticalAlign=top;align=left;overflow=fill;html=1;labelBorderColor=none;strokeColor=default;strokeWidth=1;fontFamily=Helvetica;fontSize=12;fontColor=#333333;fillColor=#f5f5f5;gradientColor=none;whiteSpace=wrap;" vertex="1" parent="1">
                    <mxGeometry x="15" y="-1731" width="199" height="181" as="geometry"/>
                </mxCell>
                <mxCell id="57" value="&lt;div style=&quot;box-sizing:border-box;width:100%;background:#e4e4e4;padding:2px;&quot;&gt;&quot;ExhibitionArtwork&quot; (Произведения на выставке)&lt;/div&gt;&lt;table style=&quot;width:100%;font-size:1em;&quot; cellpadding=&quot;2&quot; cellspacing=&quot;0&quot;&gt;&lt;tbody&gt;&lt;tr&gt;&lt;td&gt;ID&lt;/td&gt;&lt;td&gt;Уникальный идентификатор связи тега с произведением&lt;/td&gt;&lt;/tr&gt;&lt;tr&gt;&lt;td&gt;ArtworkID&lt;/td&gt;&lt;td&gt;Идентификатор произведения&lt;br&gt;&lt;/td&gt;&lt;/tr&gt;&lt;tr&gt;&lt;td&gt;Tag&lt;/td&gt;&lt;td&gt;Тег произведения&lt;/td&gt;&lt;/tr&gt;&lt;/tbody&gt;&lt;/table&gt;" style="verticalAlign=top;align=left;overflow=fill;html=1;labelBorderColor=none;strokeColor=default;strokeWidth=1;fontFamily=Helvetica;fontSize=12;fontColor=#333333;fillColor=#f5f5f5;gradientColor=none;whiteSpace=wrap;" vertex="1" parent="1">
                    <mxGeometry x="-4.25" y="-2059" width="199.5" height="134" as="geometry"/>
                </mxCell>
                <mxCell id="59" value="&lt;div style=&quot;box-sizing:border-box;width:100%;background:#e4e4e4;padding:2px;&quot;&gt;&quot;AudioGuide&quot; (Аудиогид)&lt;/div&gt;&lt;table style=&quot;width:100%;font-size:1em;&quot; cellpadding=&quot;2&quot; cellspacing=&quot;0&quot;&gt;&lt;tbody&gt;&lt;tr&gt;&lt;td&gt;ID&lt;/td&gt;&lt;td&gt;Уникальный идентификатор аудиогида&lt;/td&gt;&lt;/tr&gt;&lt;tr&gt;&lt;td&gt;Title&lt;/td&gt;&lt;td&gt;Название аудиогида&lt;/td&gt;&lt;/tr&gt;&lt;tr&gt;&lt;td&gt;Language&lt;/td&gt;&lt;td&gt;Язык аудиогида&lt;/td&gt;&lt;/tr&gt;&lt;tr&gt;&lt;td&gt;Duration&lt;br&gt;&lt;/td&gt;&lt;td&gt;Продолжительность аудиогида&lt;br&gt;&lt;/td&gt;&lt;/tr&gt;&lt;/tbody&gt;&lt;/table&gt;" style="verticalAlign=top;align=left;overflow=fill;html=1;labelBorderColor=none;strokeColor=default;strokeWidth=1;fontFamily=Helvetica;fontSize=12;fontColor=#333333;fillColor=#f5f5f5;gradientColor=none;whiteSpace=wrap;" vertex="1" parent="1">
                    <mxGeometry x="816" y="-1830" width="180" height="139" as="geometry"/>
                </mxCell>
                <mxCell id="60" value="&lt;div style=&quot;box-sizing:border-box;width:100%;background:#e4e4e4;padding:2px;&quot;&gt;&quot;ExhibitionRoom&quot; (Помещение выставки)&lt;/div&gt;&lt;table style=&quot;width:100%;font-size:1em;&quot; cellpadding=&quot;2&quot; cellspacing=&quot;0&quot;&gt;&lt;tbody&gt;&lt;tr&gt;&lt;td&gt;ID&lt;/td&gt;&lt;td&gt;Уникальный идентификатор помещения&lt;/td&gt;&lt;/tr&gt;&lt;tr&gt;&lt;td&gt;ExhibitionID&lt;/td&gt;&lt;td&gt;Идентификатор выставки&lt;/td&gt;&lt;/tr&gt;&lt;tr&gt;&lt;td&gt;RoomNumber&lt;/td&gt;&lt;td&gt;Номер комнаты или зала&lt;/td&gt;&lt;/tr&gt;&lt;/tbody&gt;&lt;/table&gt;" style="verticalAlign=top;align=left;overflow=fill;html=1;labelBorderColor=none;strokeColor=default;strokeWidth=1;fontFamily=Helvetica;fontSize=12;fontColor=#333333;fillColor=#f5f5f5;gradientColor=none;whiteSpace=wrap;" vertex="1" parent="1">
                    <mxGeometry x="460" y="-2125" width="228" height="118" as="geometry"/>
                </mxCell>
                <mxCell id="62" value="&lt;div style=&quot;box-sizing:border-box;width:100%;background:#e4e4e4;padding:2px;&quot;&gt;&quot;LoanReturn&quot; (Возврат займа)&lt;/div&gt;&lt;table style=&quot;width:100%;font-size:1em;&quot; cellpadding=&quot;2&quot; cellspacing=&quot;0&quot;&gt;&lt;tbody&gt;&lt;tr&gt;&lt;td&gt;ID&lt;/td&gt;&lt;td&gt;Уникальный идентификатор возврата&lt;/td&gt;&lt;/tr&gt;&lt;tr&gt;&lt;td&gt;LoanID&lt;/td&gt;&lt;td&gt;Идентификатор займа&lt;/td&gt;&lt;/tr&gt;&lt;tr&gt;&lt;td&gt;ReturnDate&lt;/td&gt;&lt;td&gt;Дата возврата&lt;/td&gt;&lt;/tr&gt;&lt;tr&gt;&lt;td&gt;Condition&lt;br&gt;&lt;/td&gt;&lt;td&gt;Состояние произведения при возврате&lt;br&gt;&lt;/td&gt;&lt;/tr&gt;&lt;/tbody&gt;&lt;/table&gt;" style="verticalAlign=top;align=left;overflow=fill;html=1;labelBorderColor=none;strokeColor=default;strokeWidth=1;fontFamily=Helvetica;fontSize=12;fontColor=#333333;fillColor=#f5f5f5;gradientColor=none;whiteSpace=wrap;" vertex="1" parent="1">
                    <mxGeometry x="268.5" y="-1633" width="214" height="121" as="geometry"/>
                </mxCell>
            </root>
        </mxGraphModel>
    </diagram>
</mxfile>